<?xml version="1.0" standalone="no"?>
<!DOCTYPE svg PUBLIC "-//W3C//DTD SVG 20010904//EN"
 "http://www.w3.org/TR/2001/REC-SVG-20010904/DTD/svg10.dtd">
<svg version="1.0" xmlns="http://www.w3.org/2000/svg"
 width="500.000000pt" height="500.000000pt" viewBox="0 0 500.000000 500.000000"
 preserveAspectRatio="xMidYMid meet">

<g transform="translate(0.000000,500.000000) scale(0.100000,-0.100000)"
fill="#000000" stroke="none">
<path d="M2421 3824 c-12 -15 -21 -35 -21 -46 0 -27 45 -68 75 -68 30 0 75 41
75 68 0 35 -38 72 -75 72 -24 0 -39 -7 -54 -26z m105 -9 c34 -52 -14 -110 -74
-89 -64 23 -46 114 23 114 26 0 39 -6 51 -25z"/>
<path d="M2195 3815 c6 -2 23 -6 38 -9 31 -7 51 -46 41 -78 -3 -11 -20 -26
-37 -33 -20 -9 -25 -14 -14 -15 10 0 29 11 43 26 20 19 24 31 20 52 -9 35 -41
62 -75 61 -14 0 -21 -2 -16 -4z"/>
<path d="M2147 3803 c-2 -5 3 -36 11 -70 9 -43 19 -63 29 -63 13 0 13 2 0 15
-21 21 -32 105 -15 116 10 7 9 9 -4 9 -9 0 -19 -3 -21 -7z"/>
<path d="M2835 3800 c11 -5 27 -9 35 -9 9 0 8 4 -5 9 -11 5 -27 9 -35 9 -9 0
-8 -4 5 -9z"/>
<path d="M2898 3783 c8 -3 -12 -24 -53 -53 l-66 -48 32 -11 c18 -6 37 -11 43
-10 6 0 -4 6 -22 13 l-34 12 61 43 c62 43 75 62 44 60 -12 0 -14 -2 -5 -6z"/>
<path d="M3027 3675 c-15 -31 -27 -59 -27 -64 0 -10 51 -34 58 -26 3 3 1 5 -4
5 -6 0 -18 6 -28 13 -17 13 -17 16 8 65 25 49 28 52 49 41 60 -31 74 -72 37
-109 -11 -11 -16 -20 -11 -20 15 0 41 42 41 65 -1 27 -19 49 -57 68 -18 10
-34 17 -35 17 -2 0 -16 -25 -31 -55z"/>
<path d="M1825 3674 c-33 -20 -35 -23 -13 -18 24 5 29 1 53 -46 15 -29 28 -50
31 -48 2 3 -9 28 -24 57 -26 51 -27 52 -8 66 31 23 5 16 -39 -11z"/>
<path d="M3257 3548 c-45 -56 -57 -79 -30 -55 18 16 24 16 42 5 13 -8 21 -24
22 -43 l1 -30 7 30 c6 26 2 33 -21 48 l-29 17 23 30 c26 36 29 36 56 7 27 -28
28 -52 5 -66 -10 -6 -13 -11 -7 -11 16 0 34 22 34 42 0 18 -45 68 -61 68 -4 0
-23 -19 -42 -42z"/>
<path d="M1670 3574 c1 -5 14 -25 30 -44 32 -36 38 -68 18 -88 -23 -23 -53
-13 -90 30 -21 24 -38 40 -38 36 0 -5 16 -26 36 -48 40 -44 71 -51 97 -22 25
27 21 54 -14 98 -38 49 -39 49 -39 38z"/>
<path d="M3449 3383 l-47 -16 34 -29 c27 -24 33 -35 28 -56 -3 -17 3 -10 15
17 12 24 19 46 17 48 -2 3 -7 -5 -11 -17 l-7 -22 -24 23 c-30 28 -30 35 0 43
13 3 31 9 40 12 12 5 15 2 10 -12 -5 -16 -4 -16 5 -4 24 34 11 37 -60 13z"/>
<path d="M1500 3377 c32 -16 35 -45 10 -76 l-21 -24 -24 23 c-28 27 -30 37
-12 60 6 9 2 5 -11 -8 l-23 -25 48 -43 c48 -43 81 -60 49 -26 -15 18 -15 21 4
45 11 14 20 32 20 40 0 21 -27 47 -48 47 -12 0 -9 -4 8 -13z"/>
<path d="M2330 3075 c0 -175 3 -225 13 -225 7 0 41 17 76 38 129 76 228 221
239 349 l5 63 -167 0 -166 0 0 -225z"/>
<path d="M3588 3193 c-42 -61 -46 -73 -20 -73 12 0 13 3 5 8 -9 6 -3 22 23 61
20 29 34 54 32 56 -2 1 -20 -22 -40 -52z"/>
<path d="M3678 3143 c7 -3 16 -2 19 1 4 3 -2 6 -13 5 -11 0 -14 -3 -6 -6z"/>
<path d="M3608 3133 c12 -2 30 -2 40 0 9 3 -1 5 -23 4 -22 0 -30 -2 -17 -4z"/>
<path d="M1217 3051 c-4 -17 -3 -21 5 -13 5 5 8 16 6 23 -3 8 -7 3 -11 -10z"/>
<path d="M1252 3048 c-17 -17 -15 -65 4 -72 19 -7 33 0 57 31 23 29 45 29 57
1 8 -18 9 -19 7 -4 -1 10 -10 24 -19 30 -14 8 -24 4 -52 -23 -19 -18 -39 -30
-45 -27 -15 9 -14 49 1 64 7 7 10 12 7 12 -3 0 -10 -5 -17 -12z"/>
<path d="M3683 2995 c-55 -25 -59 -30 -42 -55 8 -12 9 -11 4 6 -5 19 2 24 55
44 33 12 60 24 60 26 0 9 -28 1 -77 -21z"/>
<path d="M1351 2957 c-13 -21 -12 -21 5 -5 10 10 16 20 13 22 -3 3 -11 -5 -18
-17z"/>
<path d="M3650 2911 c0 -6 4 -13 10 -16 6 -3 7 1 4 9 -7 18 -14 21 -14 7z"/>
<path d="M1255 2830 c-16 -4 -22 -8 -12 -9 9 0 17 -9 18 -18 0 -16 1 -16 8 1
4 11 16 23 27 27 25 10 -1 9 -41 -1z"/>
<path d="M1166 2812 c-2 -4 22 -29 55 -55 32 -26 59 -43 59 -38 0 5 -6 11 -14
14 -9 4 -13 15 -10 29 3 17 2 18 -3 6 -7 -16 -11 -15 -42 10 l-35 26 25 7 24
7 -27 1 c-15 1 -29 -3 -32 -7z"/>
<path d="M3696 2794 c-3 -8 -1 -24 4 -35 11 -20 38 -23 80 -9 18 6 11 7 -21 4
-48 -6 -66 7 -53 41 4 8 4 15 1 15 -3 0 -8 -7 -11 -16z"/>
<path d="M3822 2775 c-11 -12 -10 -15 3 -15 8 0 15 7 15 15 0 18 -2 18 -18 0z"/>
<path d="M1180 2599 c30 -16 58 -33 62 -37 4 -4 -22 -18 -58 -31 -36 -13 -63
-25 -61 -27 4 -4 138 43 145 51 5 4 -122 75 -134 75 -5 0 16 -14 46 -31z"/>
<path d="M3725 2620 c4 -6 12 -10 20 -10 7 0 15 -8 17 -17 3 -17 4 -17 10 -1
5 12 -1 19 -23 27 -18 6 -27 6 -24 1z"/>
<path d="M3818 2584 c18 -8 30 -19 27 -24 -3 -6 1 -7 9 -4 9 3 16 8 16 11 0 5
-67 33 -77 32 -4 0 7 -7 25 -15z"/>
<path d="M3785 2529 c-22 -10 -44 -24 -50 -30 -5 -6 14 1 43 15 28 15 52 29
52 31 0 7 0 7 -45 -16z"/>
<path d="M2584 2374 c-140 -84 -230 -216 -247 -361 l-5 -43 164 0 164 0 0 189
c0 104 3 203 6 220 9 41 -6 40 -82 -5z"/>
<path d="M2022 1703 c12 -3 18 -18 21 -51 l3 -47 2 47 c2 35 6 48 20 51 9 3
-1 5 -23 5 -22 0 -32 -2 -23 -5z"/>
<path d="M2141 1658 c1 -29 3 -45 6 -35 6 22 39 22 52 0 8 -14 9 -13 8 8 -2
21 -6 24 -29 21 -24 -4 -28 -1 -28 21 0 16 7 27 18 30 13 4 11 5 -5 6 -21 1
-23 -3 -22 -51z"/>
<path d="M2283 1660 c0 -30 2 -43 4 -27 2 15 2 39 0 55 -2 15 -4 2 -4 -28z"/>
<path d="M2503 1660 c0 -30 2 -43 4 -27 2 15 2 39 0 55 -2 15 -4 2 -4 -28z"/>
<path d="M2732 1660 c1 -52 1 -53 7 -15 l6 39 33 -39 32 -40 -1 55 c-2 52 -2
53 -8 15 l-6 -39 -32 39 -32 40 1 -55z"/>
<path d="M2883 1660 c0 -30 2 -43 4 -27 2 15 2 39 0 55 -2 15 -4 2 -4 -28z"/>
<path d="M3092 1703 c12 -3 18 -18 21 -51 l3 -47 2 47 c2 35 6 48 20 51 9 3
-1 5 -23 5 -22 0 -32 -2 -23 -5z"/>
<path d="M1732 1655 c1 -44 2 -46 5 -12 l4 39 34 -39 34 -38 -1 50 c-1 35 -2
40 -5 18 -2 -18 -6 -33 -9 -33 -2 0 -18 15 -34 33 l-29 32 1 -50z"/>
<path d="M1882 1663 c-2 -33 2 -43 17 -48 22 -7 51 3 51 17 0 6 -6 5 -15 -2
-24 -20 -43 -4 -48 37 l-4 38 -1 -42z"/>
<path d="M2190 1696 c0 -2 7 -9 15 -16 13 -11 14 -10 9 4 -5 14 -24 23 -24 12z"/>
<path d="M2362 1688 c-17 -17 -15 -42 6 -61 20 -18 48 -22 56 -9 2 4 -7 8 -21
7 -34 0 -52 28 -35 55 14 23 12 26 -6 8z"/>
<path d="M2582 1688 c-31 -31 8 -85 52 -74 34 8 46 51 21 74 -16 16 -16 16 -4
-6 17 -28 2 -57 -31 -57 -32 0 -49 29 -32 55 14 23 12 26 -6 8z"/>
<path d="M3225 1689 c-11 -16 -1 -19 13 -3 7 8 8 14 3 14 -5 0 -13 -5 -16 -11z"/>
<path d="M2960 1670 c0 -5 5 -10 11 -10 5 0 7 5 4 10 -3 6 -8 10 -11 10 -2 0
-4 -4 -4 -10z"/>
<path d="M3250 1676 c0 -11 30 -66 36 -66 2 0 -3 15 -12 33 -19 36 -24 44 -24
33z"/>
<path d="M3000 1653 c18 -9 11 -31 -12 -36 -20 -5 -20 -5 2 -4 17 2 25 8 25
21 0 11 -6 20 -13 22 -7 1 -8 0 -2 -3z"/>
<path d="M3201 1633 c-10 -26 -10 -27 4 -9 8 11 15 23 15 28 0 15 -7 8 -19
-19z"/>
<path d="M2419 1418 c17 -22 35 -23 51 -3 15 18 -1 20 -18 3 -8 -8 -15 -8 -29
3 -16 13 -17 12 -4 -3z"/>
<path d="M3550 1415 c16 -20 34 -19 51 3 13 15 12 16 -4 3 -14 -11 -21 -11
-29 -3 -17 17 -33 15 -18 -3z"/>
<path d="M3870 1415 c-7 -8 -8 -15 -2 -15 5 0 15 7 22 15 7 8 8 15 2 15 -5 0
-15 -7 -22 -15z"/>
<path d="M1080 1295 c0 -98 18 -116 22 -22 l3 62 33 -54 34 -54 31 54 32 54 3
-62 c4 -94 22 -76 22 22 0 47 -4 85 -8 85 -4 0 -23 -27 -42 -59 -19 -33 -38
-57 -42 -55 -4 2 -21 29 -38 59 -17 30 -36 55 -41 55 -5 0 -9 -38 -9 -85z"/>
<path d="M1330 1295 c0 -50 4 -85 10 -85 6 0 10 35 10 85 0 50 -4 85 -10 85
-6 0 -10 -35 -10 -85z"/>
<path d="M1430 1295 l0 -85 55 0 c30 0 55 5 55 10 0 6 -20 10 -45 10 l-45 0 0
75 c0 43 -4 75 -10 75 -6 0 -10 -35 -10 -85z"/>
<path d="M1590 1295 c0 -50 4 -85 10 -85 6 0 10 35 10 85 0 50 -4 85 -10 85
-6 0 -10 -35 -10 -85z"/>
<path d="M1709 1367 c-46 -35 -50 -88 -10 -128 33 -33 75 -38 107 -14 18 14
17 15 -18 9 -50 -8 -74 1 -88 37 -24 58 32 115 89 89 27 -12 43 -4 21 10 -21
14 -82 12 -101 -3z"/>
<path d="M1896 1300 c-20 -43 -36 -82 -36 -85 0 -15 18 -2 28 20 10 21 18 25
57 25 39 0 47 -3 55 -25 5 -14 14 -25 20 -25 6 0 5 13 -4 33 -8 17 -25 56 -37
85 -13 28 -28 52 -35 52 -6 0 -28 -36 -48 -80z m78 -7 c7 -21 4 -23 -28 -23
-41 0 -42 3 -20 56 l16 38 13 -24 c7 -14 16 -35 19 -47z"/>
<path d="M2160 1295 l0 -85 48 0 c58 0 111 30 113 62 4 77 -27 108 -107 108
l-54 0 0 -85z m97 65 c81 -29 55 -130 -34 -130 l-43 0 0 63 c0 35 3 67 7 70 9
10 36 9 70 -3z"/>
<path d="M2418 1373 c28 -2 52 -9 52 -14 0 -6 -22 -38 -50 -72 -27 -34 -50
-65 -50 -69 0 -5 32 -8 70 -8 83 0 95 18 15 22 l-56 3 56 67 c30 36 55 69 55
72 0 3 -33 5 -72 4 -63 -1 -66 -2 -20 -5z"/>
<path d="M2570 1295 l0 -85 60 0 c33 0 60 4 60 10 0 6 -22 10 -50 10 -49 0
-50 1 -50 30 0 28 2 30 40 30 22 0 40 5 40 10 0 6 -18 10 -40 10 -38 0 -40 2
-40 29 0 28 2 30 48 34 46 3 46 3 -10 5 l-58 2 0 -85z"/>
<path d="M2750 1295 l0 -85 55 0 c30 0 55 5 55 10 0 6 -20 10 -45 10 l-45 0 0
75 c0 43 -4 75 -10 75 -6 0 -10 -35 -10 -85z"/>
<path d="M2910 1295 l0 -85 60 0 c33 0 60 4 60 10 0 6 -22 10 -50 10 -49 0
-50 1 -50 30 0 29 2 30 45 30 25 0 45 5 45 10 0 6 -21 10 -46 10 -44 0 -45 1
-42 28 3 24 8 28 53 33 l50 6 -62 1 -63 2 0 -85z"/>
<path d="M3100 1295 l0 -85 43 0 c23 0 52 3 65 6 29 8 40 50 19 71 -12 13 -13
20 -4 34 21 34 -2 54 -67 57 l-56 3 0 -86z m95 61 c30 -22 12 -46 -35 -46 -38
0 -40 2 -40 30 0 26 4 30 28 30 16 0 37 -6 47 -14z m13 -75 c8 -5 12 -17 10
-27 -2 -15 -14 -20 -51 -22 -46 -3 -47 -3 -47 27 0 29 2 31 38 31 20 0 43 -4
50 -9z"/>
<path d="M3300 1295 l0 -85 39 0 c50 0 99 18 111 40 18 33 11 79 -15 105 -20
21 -34 25 -80 25 l-55 0 0 -85z m123 48 c9 -9 17 -30 17 -49 0 -41 -30 -64
-82 -64 l-38 0 0 63 c0 35 3 67 7 71 11 11 75 -3 96 -21z"/>
<path d="M3558 1373 c28 -2 52 -8 52 -12 0 -5 -22 -37 -50 -71 -27 -34 -50
-66 -50 -71 0 -5 32 -9 70 -9 83 0 94 18 14 22 l-56 3 51 64 c28 35 51 67 51
72 0 5 -30 8 -67 7 -64 -2 -65 -2 -15 -5z"/>
<path d="M3700 1295 c0 -50 4 -85 10 -85 6 0 10 35 10 85 0 50 -4 85 -10 85
-6 0 -10 -35 -10 -85z"/>
<path d="M3819 1367 c-46 -35 -50 -88 -10 -128 33 -33 75 -38 107 -14 18 14
17 15 -18 9 -50 -8 -74 1 -88 37 -24 58 32 115 89 89 27 -12 43 -4 21 10 -21
14 -82 12 -101 -3z"/>
</g>
</svg>
